Coordinates
version=1
nRows=5
nColumns=40
inDegrees=yes

Units are S.I. units (second, meters, Newtons, ...)
Angles are in degrees.

endheader
time	pelvis_tilt	pelvis_list	pelvis_rotation	pelvis_tx	pelvis_ty	pelvis_tz	hip_flexion_r	hip_adduction_r	hip_rotation_r	knee_angle_r	knee_angle_r_beta	ankle_angle_r	subtalar_angle_r	mtp_angle_r	hip_flexion_l	hip_adduction_l	hip_rotation_l	knee_angle_l	knee_angle_l_beta	ankle_angle_l	subtalar_angle_l	mtp_angle_l	lumbar_extension	lumbar_bending	lumbar_rotation	arm_flex_r	arm_add_r	arm_rot_r	elbow_flex_r	pro_sup_r	wrist_flex_r	wrist_dev_r	arm_flex_l	arm_add_l	arm_rot_l	elbow_flex_l	pro_sup_l	wrist_flex_l	wrist_dev_l
     58.24128571	     -8.25561205	     -6.49495033	      6.22390261	      1.08901344	      0.90849754	      0.49155724	     -2.65142637	      5.38463977	    -18.76363240	      5.62511213	      5.62511213	     17.65855944	      7.70216445	     -2.27280120	     37.75983833	     -6.86417084	     -2.14695045	     17.24221634	     17.24221634	      3.92968096	     -7.83248191	      8.92731705	     -8.64248570	      6.44953286	      3.16017945	     54.69226382	    -17.04665268	     -7.68165460	     96.77836181	     44.57397455	      0.00000000	      0.00000000	    -14.99252211	     -6.71498648	      7.21749380	     25.73850492	     44.29383357	      0.00000000	      0.00000000
     58.25257143	     -8.34864504	     -6.40122037	      5.89433013	      1.08999069	      0.90654077	      0.48973447	     -2.92661265	      5.03178766	    -18.39231061	      6.40105983	      6.40105983	     18.70868115	      7.59937254	     -1.29814383	     37.51466292	     -6.68848185	     -1.86453378	     17.95643893	     17.95643893	      1.84278902	    -10.39171573	      7.09579211	     -8.48186343	      6.26723995	      3.48731885	     55.28694238	    -17.12758126	     -7.55843260	     98.87632750	     44.54296477	      0.00000000	      0.00000000	    -15.83295360	     -6.62552057	      7.50494978	     25.81831764	     44.29609812	      0.00000000	      0.00000000
     58.26385714	     -8.34679515	     -6.36628683	      5.58513130	      1.09109662	      0.90473066	      0.48796634	     -3.32676574	      4.75945891	    -18.05082572	      7.07443901	      7.07443901	     19.29004002	      7.51370224	     -1.36808994	     37.55585607	     -6.75586310	     -2.07829131	     19.46030705	     19.46030705	      1.08739560	    -11.49286722	      6.85551515	     -8.36672160	      6.17357424	      3.54783616	     56.07523643	    -16.78327109	     -7.52690455	     99.74416117	     44.52406060	      0.00000000	      0.00000000	    -16.46366450	     -6.46426767	      7.61154110	     25.47245947	     44.28128969	      0.00000000	      0.00000000
     58.27514286	     -8.37249465	     -6.30140941	      5.33437807	      1.09217026	      0.90310190	      0.48601223	     -3.51061335	      4.38536945	    -17.65116459	      8.12183793	      8.12183793	     19.97309733	      7.20822132	     -1.44994290	     37.59133926	     -6.71831924	     -2.02177194	     20.86004557	     20.86004557	      0.35563766	    -12.68767610	      6.52011163	     -8.22947005	      6.08515522	      3.45341013	     56.54540953	    -16.24365159	     -7.41785964	    100.98377307	     44.49149136	      0.00000000	      0.00000000	    -17.00625022	     -6.26349866	      7.74769454	     25.03997624	     44.26746502	      0.00000000	      0.00000000
     58.28642857	     -8.36742471	     -6.17105577	      5.06288886	      1.09331015	      0.90192475	      0.48397913	     -3.63768974	      3.90243865	    -17.27719022	      9.33637974	      9.33637974	     20.46209486	      6.80304397	     -1.50466971	     37.51484691	     -6.62964591	     -1.95960309	     22.14038897	     22.14038897	     -0.08161614	    -13.75552160	      6.09693265	     -8.12811427	      5.85228265	      3.33396068	     56.69108566	    -15.76901125	     -7.36385112	    102.25371311	     44.45967594	      0.00000000	      0.00000000	    -17.32550100	     -6.08563404	      7.89451655	     24.55494935	     44.25849067	      0.00000000	      0.00000000
